<svg width="16" height="16" viewBox="0 0 16 16" fill="none" xmlns="http://www.w3.org/2000/svg">
<path d="M0.463908 15.5432C-0.154636 14.9342 -0.154636 13.9467 0.463908 13.3377L13.1569 0.839641C13.7755 0.230599 14.7783 0.230599 15.3969 0.839641C16.0154 1.44868 16.0154 2.43614 15.3969 3.04518L2.70385 15.5432C2.08531 16.1523 1.08245 16.1523 0.463908 15.5432Z" fill="white"/>
<path d="M0.603134 0.456782C1.22168 -0.152261 2.22453 -0.15226 2.84308 0.456782L15.5361 12.9548C16.1546 13.5639 16.1546 14.5513 15.5361 15.1604C14.9175 15.7694 13.9147 15.7694 13.2961 15.1604L0.603134 2.66232C-0.0154093 2.05328 -0.0154092 1.06582 0.603134 0.456782Z" fill="white"/>
</svg>
